<?xml version="1.0" encoding="utf-8"?>
<!-- Generator: Adobe Illustrator 25.4.1, SVG Export Plug-In . SVG Version: 6.00 Build 0)  -->
<svg version="1.1" id="Layer_1" xmlns="http://www.w3.org/2000/svg" xmlns:xlink="http://www.w3.org/1999/xlink" x="0px" y="0px"
	 viewBox="0 0 500 500" style="enable-background:new 0 0 500 500;" xml:space="preserve">
<style type="text/css">
	.st0{fill:#FF0000;}
	.st1{fill:#FFFFFF;}
</style>
<g>
	<g>
		<g transform="translate(94.026054, 110.169288)">
			<path class="st0" d="M31.5,134.2v-10.3h36.2v10.3H55.5v41.1H43.8v-41.1H31.5z"/>
		</g>
	</g>
	<g>
		<g transform="translate(116.323035, 110.169288)">
			<path class="st0" d="M52.6,143.3v15.3c0,3.2,0.5,5.4,1.4,6.8c1,1.3,2.6,2,4.9,2c2.3,0,3.9-0.7,4.9-2c1-1.3,1.4-3.6,1.4-6.8v-15.3
				h11v17.9c0,5.3-1.4,9.2-4.1,11.5c-2.8,2.3-7.2,3.5-13.2,3.5s-10.4-1.2-13.2-3.5c-2.8-2.3-4.1-6.2-4.1-11.5v-17.9H52.6z"/>
		</g>
	</g>
	<g>
		<g transform="translate(141.424779, 110.169288)">
			<path class="st0" d="M50.6,175.3v-32h11v3.4h0.1c2.9-2.9,5.9-4.3,9.2-4.3c1.6,0,3.2,0.2,4.7,0.6c1.6,0.4,3,1.1,4.5,1.9
				c1.4,0.9,2.6,2.1,3.5,3.7c0.9,1.6,1.4,3.5,1.4,5.6v21.1H74v-18.1c0-1.7-0.5-3.1-1.6-4.4c-1.1-1.2-2.4-1.9-4.1-1.9
				s-3.2,0.6-4.5,1.9s-2,2.7-2,4.3v18.1H50.6V175.3z"/>
		</g>
	</g>
	<g>
		<g transform="translate(166.760245, 110.169288)">
			<path class="st0" d="M91.4,160.9H68.2c0,2.2,0.7,3.9,2.2,5c1.5,1.1,3,1.6,4.7,1.6c1.8,0,3.2-0.2,4.2-0.7s2.2-1.4,3.5-2.9l8,4
				c-3.3,5.6-8.8,8.4-16.6,8.4c-4.8,0-9-1.7-12.4-5c-3.4-3.3-5.2-7.3-5.2-11.9c0-4.7,1.7-8.6,5.2-12c3.4-3.3,7.6-5,12.4-5
				c5.1,0,9.2,1.5,12.4,4.4c3.2,2.9,4.8,7.1,4.8,12.6C91.4,160.1,91.4,160.6,91.4,160.9z M68.5,154.8h12.2c-0.2-1.7-0.9-2.9-2-3.8
				s-2.4-1.4-4.1-1.4c-1.8,0-3.3,0.5-4.4,1.4C69.2,152,68.6,153.2,68.5,154.8z"/>
		</g>
	</g>
	<g>
		<g transform="translate(189.384446, 110.169288)">
			<path class="st0" d="M78.3,143.4v31.9H66.6v-51.4h11.7l20.4,31.9h0.1v-31.9h11.7v51.4H98.8L78.3,143.4L78.3,143.4z"/>
		</g>
	</g>
	<g>
		<g transform="translate(222.433025, 110.169288)">
			<path class="st0" d="M109.9,160.9H86.7c0,2.2,0.7,3.9,2.2,5c1.5,1.1,3,1.6,4.7,1.6c1.8,0,3.2-0.2,4.2-0.7s2.2-1.4,3.5-2.9l8,4
				c-3.3,5.6-8.8,8.4-16.6,8.4c-4.8,0-9-1.7-12.4-5c-3.4-3.3-5.2-7.3-5.2-11.9c0-4.7,1.7-8.6,5.2-12c3.4-3.3,7.6-5,12.4-5
				c5.1,0,9.2,1.5,12.4,4.4c3.2,2.9,4.8,7.1,4.8,12.6C110,160.1,110,160.6,109.9,160.9z M87.1,154.8h12.2c-0.2-1.7-0.9-2.9-2-3.8
				s-2.4-1.4-4.1-1.4c-1.8,0-3.3,0.5-4.4,1.4C87.7,152,87.1,153.2,87.1,154.8z"/>
		</g>
	</g>
	<g>
		<g transform="translate(245.057226, 110.169288)">
			<path class="st0" d="M99,142.4c1.8,0,3.6,0.2,5.4,0.6c1.8,0.4,3.1,0.8,4,1.2l1.3,0.6l-3.6,7.2c-2.5-1.3-4.9-2-7.1-2
				c-1.2,0-2.1,0.1-2.7,0.4c-0.5,0.3-0.8,0.8-0.8,1.5c0,0.2,0,0.3,0.1,0.5c0,0.2,0.1,0.3,0.2,0.5c0.1,0.1,0.2,0.3,0.3,0.4
				c0.1,0.1,0.3,0.2,0.5,0.3c0.2,0.1,0.4,0.2,0.6,0.3c0.2,0.1,0.4,0.1,0.7,0.3c0.3,0.1,0.6,0.2,0.8,0.3c0.2,0.1,0.4,0.1,0.8,0.3
				c0.4,0.1,0.7,0.2,0.9,0.2c1.3,0.4,2.4,0.8,3.4,1.2s2,1.1,3,1.9c1.1,0.8,1.9,1.8,2.5,3c0.6,1.2,0.9,2.6,0.9,4.1
				c0,7.3-5.1,10.9-15.1,10.9c-2.3,0-4.5-0.4-6.5-1.1c-2.1-0.7-3.5-1.4-4.4-2.1l-1.4-1.1l4.5-7.5c0.3,0.3,0.8,0.6,1.3,1
				s1.5,0.9,2.9,1.6c1.4,0.7,2.6,1,3.7,1c2.3,0,3.4-0.8,3.4-2.3c0-0.7-0.3-1.3-0.9-1.6c-0.6-0.4-1.6-0.8-3-1.3s-2.5-1-3.3-1.4
				c-2-1-3.6-2.2-4.8-3.5c-1.2-1.3-1.7-3.1-1.7-5.2c0-3.2,1.3-5.8,3.8-7.6C91.4,143.3,94.8,142.4,99,142.4z"/>
		</g>
	</g>
	<g>
		<g transform="translate(262.492608, 110.169288)">
			<path class="st0" d="M92.8,143.3v-11.9h11v11.9h6.7v8.4h-6.7v10.2c0,2.9,0.8,4.4,2.5,4.4c0.4,0,0.8-0.1,1.3-0.2
				c0.5-0.2,0.8-0.3,1.1-0.5l0.4-0.2l2.8,8.9c-2.4,1.3-5.1,2-8.1,2c-2.1,0-3.9-0.4-5.4-1.1s-2.6-1.7-3.4-2.9
				c-0.8-1.2-1.3-2.5-1.6-3.9c-0.3-1.4-0.5-2.8-0.5-4.4v-12.2h-4.6v-8.5H92.8z"/>
		</g>
	</g>
	<path class="st1" d="M335.1,177.6c3.6-0.6,6.9,1.8,8.7,4.8c3.1-0.4,6.6,0.6,8.6,3.2c2.2,2.9,1.8,7.3-0.8,9.8
		c-4.2,4-10.7,4.5-16.2,3.9c-3.3-3.7-6.4-8.3-6.7-13.4C328.3,182,331.1,178.1,335.1,177.6z"/>
	<path class="st1" d="M341.9,213.1c0-2,2.3-3.5,4.1-2.8c3.1,1,5.8,3.4,7,6.4c0.5,1.7-2,3.1-3.1,1.7c-1.2-1.7-2.4-3.4-4.3-4.4
		c-0.2,4.4,0.1,8.8-0.2,13.2c-0.3,3.5-4.4,5.9-7.6,4.5c-3.3-1.2-4.6-5.6-2.6-8.4c1.4-2.2,4.2-2.9,6.5-2.3
		C341.9,218.5,341.8,215.8,341.9,213.1z"/>
	<path class="st1" d="M314.6,181.4c0-1.1,1.3-2,2.3-1.5c1.7,0.6,3.2,1.9,3.9,3.6c0.3,0.9-1.1,1.7-1.7,0.9c-0.6-1-1.4-1.9-2.4-2.4
		c-0.1,2.4,0,4.9-0.1,7.3c-0.2,1.9-2.4,3.3-4.2,2.5c-1.8-0.7-2.6-3.1-1.4-4.6c0.8-1.2,2.3-1.6,3.6-1.2
		C314.6,184.3,314.6,182.9,314.6,181.4z"/>
	<rect x="287.5" y="232.2" width="13.5" height="23.6"/>
	<path class="st1" d="M304.4,201.3c0.1-3.5,4-6,7.3-4.8c4.9,1.6,9.8,3.3,14.8,4.9c2.4,0.6,4.2,2.9,4.1,5.4c0,9.2,0,18.3,0,27.5
		c0.1,5.8-6.3,10.5-11.9,8.7c-5.7-1.4-8.7-8.7-5.6-13.7c2.6-4.9,9.4-6.1,13.8-2.9c-0.1-4.5,0-9.1,0-13.6c-6.2-2.1-12.5-4.2-18.7-6.2
		c0,6.9,0.1,13.7-0.1,20.6c-0.2,5.8-6.8,10.2-12.2,8.2c-5.5-1.6-8.2-8.8-5.1-13.7c2.6-4.8,9.4-6,13.7-2.8
		C304.4,213.1,304.3,207.2,304.4,201.3z"/>
</g>
</svg>
